# xmcd CD database file generated by Grip 2.96
# 
# Track frame offsets:
#       151
#       15061
#       29397
#       44231
#       61734
#       77616
#       91900
#       104230
#       123641
#       136382
# 
# Disc length: 2101 seconds
# 
# Revision: 0
# Processed by: cddbd v1.4PL0 Copyright (c) Steve Scherf et al.
# Submitted via: Grip 2.96
# 
DISCID=8008330a
DTITLE=Jim Wise - She Wants To Drive My Truck
DYEAR=1900
DGENRE=
TTITLE0=What She's Got
TTITLE1=Bring Back My Cadillac
TTITLE2=That Was You
TTITLE3=I Would
TTITLE4=She Wants To Drive My Truck
TTITLE5=Why You Been Gone So Long
TTITLE6=Everytime You Call My Name
TTITLE7=I Can't Make It Without You
TTITLE8=Scene Of The Crime
TTITLE9=She Wants To Drive My Truck (2)
EXTD=
EXTT0=
EXTT1=
EXTT2=
EXTT3=
EXTT4=
EXTT5=
EXTT6=
EXTT7=
EXTT8=
EXTT9=
PLAYORDER=
